<?xml version="1.0"?>
<svg xmlns="http://www.w3.org/2000/svg" xmlns:xlink="http://www.w3.org/1999/xlink" xmlns:svgjs="http://svgjs.com/svgjs" version="1.1" width="512" height="512" x="0" y="0" viewBox="0 0 512 512" style="enable-background:new 0 0 512 512" xml:space="preserve" class=""><g><g xmlns="http://www.w3.org/2000/svg"><path d="m256 0-128 256 128 256c141.385 0 256-114.615 256-256s-114.615-256-256-256z" fill="#572e66" data-original="#28abfa" style="" class=""/><path d="m0 256c0 141.385 114.615 256 256 256v-512c-141.385 0-256 114.615-256 256z" fill="#805091" data-original="#14cfff" style="" class=""/><path d="m256 60-98 196 98 196c108.248 0 196-87.752 196-196s-87.752-196-196-196z" fill="#eec9fb" data-original="#c4f3ff" style="" class=""/><path d="m60 256c0 108.248 87.752 196 196 196v-392c-108.248 0-196 87.752-196 196z" fill="#ffffff" data-original="#ffffff" style="" class=""/><path d="m298.426 277.213-42.426-42.426h-20l20 42.426 21.213 21.213z" fill="#340d66" data-original="#340d66" style="" class=""/><path d="m170.794 149.581-21.213 21.213 106.419 106.419v-42.426z" fill="#41214c" data-original="#373e9f" style="" class=""/><path d="m341.561 149.227-85.561 85.56-20 42.426h20l106.773-106.774z" fill="#41214c" data-original="#373e9f" style="" class=""/><path d="m213.574 277.213 21.213 21.213 21.213-21.213v-42.426z" fill="#150a1a" data-original="#3857bc" style="" class=""/><path d="m271 90h-15l-10 15 10 15h15z" fill="#340d66" data-original="#340d66" style="" class=""/><path d="m241 90h15v30h-15z" fill="#41214c" data-original="#373e9f" style="" class=""/><path d="m271 392h-15l-10 15 10 15h15z" fill="#340d66" data-original="#340d66" style="" class=""/><path d="m241 392h15v30h-15z" fill="#41214c" data-original="#373e9f" style="" class=""/><path d="m90 241h30v30h-30z" fill="#41214c" transform="matrix(0 -1 1 0 -151 361)" data-original="#373e9f" style="" class=""/><path d="m392 241h30v30h-30z" fill="#340d66" transform="matrix(0 -1 1 0 151 663)" data-original="#340d66" style="" class=""/></g></g></svg>
