<svg height="437pt" viewBox="-70 0 437 437.99728" width="437pt" xmlns="http://www.w3.org/2000/svg" xmlns:xlink="http://www.w3.org/1999/xlink"><linearGradient id="lg1"><stop offset=".322" stop-color="#a163f5"/><stop offset=".466" stop-color="#b074ee"/><stop offset=".752" stop-color="#d8a1dd"/><stop offset=".898" stop-color="#efbad3"/></linearGradient><linearGradient id="linear0" gradientUnits="userSpaceOnUse" x1="95.99864" x2="95.99864" xlink:href="#lg1" y1="441.997275" y2="5.282275"/><linearGradient id="linear2" gradientUnits="userSpaceOnUse" x1="76.82064" x2="76.82064" xlink:href="#lg1" y1="441.997275" y2="5.282275"/><linearGradient id="linear3" gradientUnits="userSpaceOnUse" x1="115.17664" x2="115.17664" xlink:href="#lg1" y1="441.997275" y2="5.282275"/><linearGradient id="linear6" gradientUnits="userSpaceOnUse" x1="245.12364" x2="245.12364" xlink:href="#lg1" y1="441.997275" y2="5.282275"/><path d="m191.5 216.566406c0-3.3125-2.6875-6-6-6-3.316406 0-6 2.6875-6 6 0 46.117188-37.386719 83.5-83.5 83.5-46.117188 0-83.5-37.382812-83.5-83.5 0-3.3125-2.6875-6-6-6-3.316406 0-6 2.6875-6 6 .0625 50.386719 39.214844 92.082032 89.5 95.304688v114.125h-56.964844c-3.316406 0-6 2.6875-6 6 0 3.316406 2.683594 6 6 6h125.929688c3.3125 0 6-2.683594 6-6 0-3.3125-2.6875-6-6-6h-56.964844v-114.125c50.28125-3.222656 89.4375-44.917969 89.5-95.304688zm0 0" fill="url(#linear0)"/><path d="m24.855469 183.535156h14v33.03125c0 31.558594 25.582031 57.144532 57.144531 57.144532 31.558594 0 57.140625-25.585938 57.140625-57.144532v-33.03125h14c3.316406 0 6-2.6875 6-6 0-3.316406-2.683594-6-6-6h-14v-108.394531c0-31.558594-25.582031-57.144531-57.140625-57.144531-31.5625 0-57.144531 25.585937-57.144531 57.144531v108.394531h-14c-3.3125 0-6 2.683594-6 6 0 3.3125 2.6875 6 6 6zm116.285156 33.03125c0 24.933594-20.210937 45.144532-45.140625 45.144532-24.933594 0-45.144531-20.210938-45.144531-45.144532v-33.03125h90.285156zm-90.285156-153.425781c0-24.933594 20.210937-45.144531 45.144531-45.144531 24.929688 0 45.140625 20.210937 45.140625 45.144531v108.394531h-90.285156zm0 0" fill="url(#linear0)"/><path d="m76.820312 68.78125c-5.433593 0-9.835937 4.402344-9.835937 9.835938 0 5.433593 4.402344 9.835937 9.835937 9.835937 5.429688 0 9.835938-4.402344 9.835938-9.835937-.007812-5.429688-4.40625-9.828126-9.835938-9.835938zm0 12c-1.195312 0-2.164062-.96875-2.164062-2.164062 0-1.195313.96875-2.164063 2.164062-2.164063 1.195313 0 2.164063.96875 2.164063 2.164063 0 1.195312-.96875 2.164062-2.164063 2.164062zm0 0" fill="url(#linear2)"/><path d="m115.175781 68.78125c-5.429687 0-9.835937 4.402344-9.835937 9.835938 0 5.433593 4.40625 9.835937 9.835937 9.835937 5.433594 0 9.835938-4.402344 9.835938-9.835937-.003907-5.429688-4.40625-9.832032-9.835938-9.835938zm0 12c-1.195312 0-2.164062-.96875-2.164062-2.164062.003906-1.195313.972656-2.164063 2.167969-2.164063 1.191406 0 2.160156.96875 2.160156 2.164063 0 1.195312-.96875 2.164062-2.164063 2.164062zm0 0" fill="url(#linear3)"/><path d="m76.820312 119.925781c-5.433593-.003906-9.835937 4.402344-9.835937 9.835938 0 5.429687 4.402344 9.835937 9.835937 9.835937 5.433594 0 9.835938-4.40625 9.835938-9.839844-.007812-5.429687-4.40625-9.828124-9.835938-9.832031zm0 12c-1.195312 0-2.164062-.96875-2.164062-2.164062-.003906-1.199219.96875-2.167969 2.164062-2.167969 1.195313 0 2.164063.96875 2.164063 2.164062 0 1.195313-.96875 2.164063-2.164063 2.167969zm0 0" fill="url(#linear2)"/><path d="m115.175781 119.925781c-5.429687 0-9.835937 4.402344-9.835937 9.835938 0 5.429687 4.40625 9.835937 9.835937 9.835937 5.433594 0 9.835938-4.40625 9.835938-9.839844-.003907-5.429687-4.40625-9.828124-9.835938-9.832031zm0 12c-1.195312 0-2.164062-.972656-2.164062-2.167969 0-1.195312.96875-2.164062 2.164062-2.164062 1.195313 0 2.164063.96875 2.164063 2.164062 0 1.195313-.96875 2.164063-2.164063 2.167969zm0 0" fill="url(#linear3)"/><path d="m297.863281 31.660156v-18.339844c0-3.996093-1.792969-7.78125-4.886719-10.3125-3.09375-2.527343-7.160156-3.535156-11.078124-2.742187l-49.269532 9.980469c-6.199218 1.269531-10.65625 6.722656-10.675781 13.050781v50.601563c-8.339844-3.921876-18.261719-1.898438-24.402344 4.96875-6.144531 6.871093-7.042969 16.957031-2.21875 24.808593 4.824219 7.851563 14.234375 11.601563 23.136719 9.222657 8.902344-2.378907 15.1875-10.320313 15.453125-19.53125.023437-.207032.03125-.410157.03125-.617188v-43.277344l51.910156-10.515625v53.679688c-8.410156-3.867188-18.359375-1.722657-24.429687 5.261719-6.070313 6.984374-6.808594 17.132812-1.8125 24.921874 4.996094 7.789063 14.53125 11.351563 23.410156 8.742188 8.878906-2.605469 14.972656-10.753906 14.96875-20.007812-.003906-.773438-.050781-1.546876-.136719-2.3125zm-84.765625 69.9375c-4.886718 0-8.851562-3.964844-8.851562-8.851562 0-4.890625 3.964844-8.855469 8.851562-8.855469 4.890625 0 8.855469 3.964844 8.855469 8.855469-.007813 4.886718-3.96875 8.84375-8.855469 8.851562zm20.855469-64.375v-13.925781c0-.625.441406-1.167969 1.054687-1.292969l49.269532-9.980468c.390625-.078126.792968.023437 1.097656.273437s.484375.625.484375 1.019531v13.402344zm43.191406 83.179688c-4.699219.003906-8.582031-3.660156-8.847656-8.347656-.269531-4.6875 3.167969-8.769532 7.835937-9.300782 4.664063-.53125 8.933594 2.671875 9.726563 7.300782v1.222656c.003906.351562.035156.699218.101563 1.046875-.402344 4.570312-4.226563 8.074219-8.816407 8.082031zm0 0" fill="url(#linear6)"/></svg>